<svg width="32" height="32" viewBox="0 0 32 32" fill="none" xmlns="http://www.w3.org/2000/svg">
  <rect width="32" height="32" rx="8" fill="url(#gradient)" />
  <g transform="translate(6, 6)">
    <!-- Dumbbell icon similar to the one in your app -->
    <path d="M3 7h2v6H3V7zm14 0h2v6h-2V7zM7 9h8v2H7V9z" fill="white"/>
    <path d="M2 6h3v1H2V6zm0 7h3v1H2v-1zm13-7h3v1h-3V6zm0 7h3v1h-3v-1z" fill="white"/>
    <circle cx="3" cy="6.5" r="1" fill="white"/>
    <circle cx="3" cy="13.5" r="1" fill="white"/>
    <circle cx="17" cy="6.5" r="1" fill="white"/>
    <circle cx="17" cy="13.5" r="1" fill="white"/>
  </g>
  <defs>
    <linearGradient id="gradient" x1="0%" y1="0%" x2="100%" y2="100%">
      <stop offset="0%" style="stop-color:#8B5CF6"/>
      <stop offset="100%" style="stop-color:#3B82F6"/>
    </linearGradient>
  </defs>
</svg>
